PathFileType  4	(X/Y/Z) C:\Users\antoi\Documents\MyRepositories\mobilecap\ResultsAnalysis
DataRate	CameraRate	NumFrames	NumMarkers	Units	OrigDataRate	OrigDataStartFrame	OrigNumFrames
100.0	100.0	5	51	mm	100.0	1235	1411
Frame#	Time	r_knee			r_shank_antsup			r_ankle			r_calc			r_5meta			r_toe			L_knee			L_shank_antsup			L_ankle			L_calc			L_5meta			L_toe			r_sh2			r_sh3			r_sh4			L_sh2			L_sh3			r_thigh1			r_thigh2			r_thigh3			r_thigh4			r_thigh5			L_thigh1			L_thigh2			L_thigh3			L_thigh4			r.ASIS			r.PSIS			L.ASIS			L.PSIS			C7			R_Shoulder			L_Shoulder			R_Sternum			L_Sternum			R_humerus			R_elbow_med			R_elbow_lat			R_forearm			R_wrist_radius			R_wrist_ulna			L_humerus			L_elbow_med			L_elbow_lat			L_forearm			L_wrist_radius			L_wrist_ulna			R_HJC			L_HJC			R_HJC_reg			L_HJC_reg			
		X1	Y1	Z1	X2	Y2	Z2	X3	Y3	Z3	X4	Y4	Z4	X5	Y5	Z5	X6	Y6	Z6	X7	Y7	Z7	X8	Y8	Z8	X9	Y9	Z9	X10	Y10	Z10	X11	Y11	Z11	X12	Y12	Z12	X13	Y13	Z13	X14	Y14	Z14	X15	Y15	Z15	X16	Y16	Z16	X17	Y17	Z17	X18	Y18	Z18	X19	Y19	Z19	X20	Y20	Z20	X21	Y21	Z21	X22	Y22	Z22	X23	Y23	Z23	X24	Y24	Z24	X25	Y25	Z25	X26	Y26	Z26	X27	Y27	Z27	X28	Y28	Z28	X29	Y29	Z29	X30	Y30	Z30	X31	Y31	Z31	X32	Y32	Z32	X33	Y33	Z33	X34	Y34	Z34	X35	Y35	Z35	X36	Y36	Z36	X37	Y37	Z37	X38	Y38	Z38	X39	Y39	Z39	X40	Y40	Z40	X41	Y41	Z41	X42	Y42	Z42	X43	Y43	Z43	X44	Y44	Z44	X45	Y45	Z45	X46	Y46	Z46	X47	Y47	Z47	X48	Y48	Z48	X49	Y49	Z49	X50	Y50	Z50	X51	Y51	Z51	

1235	12.34000000	-229.11787	470.93886	-430.41110	-226.01268	401.66082	-400.21001	-267.26489	95.58144	-411.89621	-330.93690	57.84073	-451.79869	-170.31276	45.60071	-364.43515	-121.00068	64.66687	-415.00372	-243.99184	467.56316	-765.71348	-217.74856	406.95582	-777.76933	-254.28594	96.62879	-783.51688	-321.54649	59.92976	-734.41203	-164.84750	42.63686	-820.32459	-111.76701	64.16164	-767.52988	-236.10470	289.30200	-384.70157	-296.75733	404.02389	-423.01216	-314.27456	289.51251	-412.46224	-306.64846	415.17696	-788.60432	-302.26558	293.70326	-802.21898	-172.33209	777.40630	-455.89464	-164.37363	667.13716	-435.35398	-217.82453	644.68220	-401.05288	-277.07848	777.91270	-410.08813	-272.24938	660.53502	-409.17190	-177.77174	750.96118	-781.33894	-174.88068	612.31081	-778.84342	-294.45802	750.05496	-790.89335	-283.65105	608.98430	-788.21231	-183.75557	921.77478	-477.04617	-361.10736	939.86570	-561.95154	-167.89181	915.96815	-736.16849	-358.42835	935.43452	-669.03441	-281.44094	1402.53835	-600.65064	-215.54796	1351.45841	-446.54133	-207.70623	1358.42422	-766.34647	-159.32686	1323.53389	-582.40147	-158.82128	1324.06368	-626.66014	-232.04210	1118.13791	-363.05669	-276.54516	1015.05220	-419.91873	-250.45714	1036.87964	-346.65224	-144.66215	1060.00473	-392.42894	-52.46627	1081.98094	-449.14173	-43.54558	1037.01458	-450.62034	-183.20822	1227.75825	-818.15004	-251.91254	1015.35410	-778.50886	-243.71961	1026.40830	-851.66874	-134.14003	1056.69934	-829.54277	-32.40291	1085.69412	-776.15879	-19.48624	1051.77077	-783.47592	-248.14518	846.48806	-508.32197	-233.87660	844.95726	-708.09953	-242.67406	841.04249	-511.95864	-238.39107	833.95879	-683.14231	
1236	12.35000000	-229.26251	471.09293	-430.17191	-226.43583	401.71841	-400.14733	-267.19862	95.63116	-411.83544	-330.90438	57.90710	-451.81826	-170.25597	45.69147	-364.41593	-120.97180	64.65135	-414.98538	-243.69916	467.72195	-765.75138	-217.34866	406.97957	-777.78330	-254.13872	96.76382	-783.47576	-321.48454	60.02765	-734.39445	-164.84415	42.65383	-820.37882	-111.71151	64.11169	-767.53051	-236.29596	289.40684	-384.61575	-297.24875	403.91975	-422.88309	-314.56539	289.37890	-412.35573	-306.27835	415.34008	-788.62179	-302.00267	293.84831	-802.24477	-172.40436	777.44831	-455.58313	-164.35173	667.23801	-435.34977	-217.71507	644.91672	-400.77701	-276.77277	778.17093	-409.70617	-272.21410	660.77912	-408.83497	-178.00014	751.12745	-781.62948	-174.80199	612.39204	-779.00783	-294.77347	750.04173	-790.36005	-283.79298	608.99031	-787.74538	-183.47996	921.79425	-476.97827	-361.00117	940.02372	-561.56692	-167.99110	916.05180	-736.14004	-358.51378	935.44547	-668.58846	-281.20921	1402.62831	-600.39663	-215.33166	1351.49239	-446.42574	-207.62334	1358.59782	-766.18365	-159.22931	1323.53480	-582.29129	-158.71136	1324.07473	-626.51171	-232.11952	1118.34486	-362.59195	-276.53945	1015.28500	-419.47120	-250.50093	1037.13427	-346.15356	-144.73370	1060.23886	-391.95370	-52.56777	1082.12452	-448.81248	-43.62362	1037.21267	-450.08164	-183.12861	1227.94519	-818.02861	-251.21231	1015.48986	-778.37456	-243.29699	1026.45901	-851.59799	-133.73965	1056.99917	-829.26409	-32.04977	1086.23021	-775.91877	-19.10673	1052.29047	-783.27435	-247.92863	846.54958	-508.12757	-234.00637	845.02455	-707.92959	-242.54702	841.31402	-511.68435	-238.56851	833.99014	-682.87563	
1237	12.36000000	-229.61165	471.23981	-429.95785	-226.91066	401.66362	-400.15887	-267.17885	95.66040	-411.80265	-330.87284	57.97781	-451.84078	-170.22876	45.72159	-364.38111	-120.95085	64.63215	-414.98158	-243.49137	467.84139	-765.75924	-217.00845	406.98572	-777.78135	-254.03905	96.85246	-783.46894	-321.44805	60.08608	-734.37519	-164.81119	42.62716	-820.32756	-111.67551	64.06753	-767.51772	-236.62435	289.54040	-384.49730	-297.80468	403.84486	-422.74061	-314.81292	289.32490	-412.26802	-305.96415	415.41247	-788.51005	-301.76234	293.93054	-802.19448	-172.21002	777.53941	-455.76159	-164.39097	667.31844	-435.33513	-217.71681	645.13794	-400.51974	-276.64924	778.37097	-409.46380	-272.27576	660.99585	-408.48255	-178.17943	751.28774	-781.80407	-174.78501	612.48333	-779.09838	-295.05057	750.08406	-789.91362	-283.90877	609.05263	-787.54228	-183.34184	921.88083	-476.78336	-361.01168	940.14204	-561.26246	-168.12737	916.13280	-736.10788	-358.66901	935.47947	-668.01364	-280.98484	1402.75793	-600.22711	-215.17224	1351.49365	-446.32249	-207.58442	1358.73201	-766.10613	-159.13386	1323.47868	-582.15706	-158.66070	1324.05810	-626.41549	-232.21691	1118.48375	-362.25766	-276.54149	1015.38398	-419.02279	-250.57754	1037.41157	-345.56042	-144.86916	1060.36618	-391.53986	-52.67719	1082.18865	-448.46367	-43.79752	1037.31422	-449.38415	-183.12768	1228.07609	-817.86275	-250.69254	1015.57732	-778.34091	-242.96105	1026.45793	-851.51148	-133.37978	1057.27678	-829.03091	-31.77696	1086.89412	-775.89462	-18.80681	1052.75544	-783.07347	-247.81515	846.64328	-507.86996	-234.17973	845.09602	-707.69170	-242.49322	841.48162	-511.36824	-238.73459	834.00012	-682.65397	
1238	12.37000000	-230.30201	471.25571	-429.98227	-227.34959	401.72442	-400.05803	-267.20042	95.66065	-411.82426	-330.84857	58.01491	-451.83319	-170.25905	45.67154	-364.32517	-120.92777	64.59888	-414.97950	-243.37292	467.90156	-765.73250	-216.78943	407.01864	-777.75736	-253.99406	96.89611	-783.48194	-321.41491	60.12541	-734.36453	-164.77924	42.60172	-820.28327	-111.65568	64.04095	-767.51930	-236.98151	289.63760	-384.41156	-298.25898	403.85333	-422.59151	-315.06008	289.35606	-412.23515	-305.74730	415.41143	-788.34634	-301.63325	293.96907	-802.13387	-171.99948	777.60356	-456.03296	-164.62020	667.42440	-435.19671	-217.87023	645.32135	-400.31222	-276.71507	778.48241	-409.35358	-272.42822	661.16683	-408.11518	-178.32840	751.42370	-781.87657	-175.07336	612.69387	-779.17246	-295.24565	750.10739	-789.53830	-284.00321	609.17540	-787.50900	-183.30095	922.00618	-476.51227	-361.10095	940.25441	-561.02456	-168.30393	916.19844	-736.04857	-358.83114	935.49283	-667.62103	-280.79970	1402.89508	-600.02318	-215.00928	1351.50125	-446.18378	-207.58794	1358.79941	-766.03124	-159.05545	1323.40209	-582.02195	-158.64844	1324.00431	-626.26484	-232.33283	1118.67965	-361.90277	-276.68609	1015.40263	-418.57619	-250.74394	1037.66060	-344.98694	-145.03626	1060.45612	-391.07087	-52.80433	1082.14033	-448.03172	-44.01201	1037.33966	-448.59300	-183.15757	1228.14795	-817.69617	-250.50346	1015.62193	-778.36952	-242.65181	1026.46083	-851.48844	-133.12690	1057.49622	-828.91665	-31.65361	1087.42974	-775.87395	-18.60425	1053.13010	-782.74648	-247.80826	846.76127	-507.61904	-234.34360	845.14862	-707.45183	-242.54904	841.63977	-511.01628	-238.89920	833.98280	-682.42888	
1239	12.38000000	-231.15024	471.11349	-430.20019	-227.82394	401.94659	-399.87510	-267.21302	95.67063	-411.83086	-330.82657	58.01733	-451.77658	-170.29632	45.60960	-364.29182	-120.90033	64.55945	-414.97785	-243.31397	467.92705	-765.70475	-216.69343	407.07581	-777.72151	-253.96964	96.91541	-783.47673	-321.37181	60.16838	-734.36364	-164.76466	42.59956	-820.27271	-111.63702	64.03371	-767.55665	-237.29463	289.68760	-384.41299	-298.72587	403.88256	-422.49725	-315.40175	289.35555	-412.23493	-305.64470	415.39977	-788.25718	-301.58232	293.99621	-802.12757	-172.18058	777.66307	-455.87753	-165.08394	667.57527	-434.86713	-218.20838	645.44450	-400.15694	-276.99658	778.53472	-409.32295	-272.71609	661.29019	-407.84233	-178.49611	751.53090	-781.94577	-175.53594	612.94547	-779.21923	-295.43834	750.05314	-789.21137	-284.10421	609.25667	-787.43751	-183.37509	922.07672	-476.30654	-361.28542	940.36994	-560.77407	-168.54630	916.23618	-735.97787	-358.99807	935.52652	-667.41162	-280.65438	1402.97713	-599.73209	-214.75852	1351.54735	-446.02073	-207.63340	1358.80236	-765.90303	-159.01908	1323.31988	-581.92544	-158.62569	1323.90800	-626.06005	-232.45484	1118.92311	-361.46350	-277.06465	1015.45314	-418.02071	-251.00636	1037.87459	-344.45730	-145.20915	1060.50136	-390.56957	-52.98848	1081.98368	-447.55152	-44.22806	1037.23549	-448.01751	-183.20407	1228.17030	-817.53979	-250.45931	1015.60327	-778.35690	-242.41194	1026.50158	-851.58809	-132.98137	1057.65915	-828.83765	-31.64609	1087.58361	-775.50194	-18.50408	1053.39957	-782.36531	-247.92857	846.84446	-507.42911	-234.57159	845.18967	-707.26875	-242.77129	841.76156	-510.78972	-239.09297	833.97258	-682.27910	
